Dawn Of The Dead 2004 BluRay 1080p x264 SpaceHD 


Encoded for HD-Space.org by tequila-bob a.k.a. bobnjeff
Source BluRay rip/Dawn Of The Dead 2004 BluRay 1080p DTS VC1 Remux-HiFi/HD-Space
 
http://www.imdb.com/title/tt0363547/

Release Date:19 March 2004 (USA) 

Genre:Drama | Horror | Thriller

Plot:A nurse, a policeman, a young married couple, a salesman, and other survivors of a worldwide plague that is producing aggressive, flesh-eating zombies, take refuge in a mega Midwestern shopping mall.

Rated R for pervasive strong horror violence and gore, language and sexuality.

        Cast  

 Sarah Polley ...  Ana 
 Ving Rhames ...  Kenneth 
 Jake Weber ...  Michael 
 Mekhi Phifer ...  Andre 
 Ty Burrell ...  Steve 
 Michael Kelly ...  CJ 
 Kevin Zegers ...  Terry 
 Michael Barry ...  Bart 
 Lindy Booth ...  Nicole 
 Jayne Eastwood ...  Norma 
 Boyd Banks ...  Tucker 
 Inna Korobkina ...  Luda 
 R.D. Reid ...  Glen 
 Kim Poirier ...  Monica 
 Matt Frewer ...  Frank [/color]

Format                           : Matroska
File size                        : 7.95 GiB
Duration                         : 1h 49mn
Overall bit rate                 : 10.4 Mbps
Movie name                       : Dawn of the Dead (2004)
Encoded date                     : UTC 2010-09-30 14:08:54
Writing application              : mkvmerge v4.3.0 ('Escape from the Island') built on Sep  5 2010 10:30:51

Bit rate                         : 8 915 Kbps
Width                            : 1 920 pixels
Height                           : 816 pixels
Display aspect ratio             : 2.35:1
Frame rate                       : 23.976 fps
Color space                      : YUV
Chroma subsampling               : 4:2:0
Bit depth                        : 8 bits
Scan type                        : Progressive
Bits/(Pixel*Frame)               : 0.237
Stream size                      : 6.64 GiB (84%)

Codec ID                         : A_DTS
Duration                         : 1h 49mn
Bit rate mode                    : Constant
Bit rate                         : 1 510 Kbps
Channel(s)                       : 6 channels
Channel positions                : Front: L C R, Side: L R, LFE
Sampling rate                    : 48.0 KHz
Bit depth                        : 24 bits
Stream size                      : 1.15 GiB (14%)

Subtitles                        : Englisg, Thai

Menu                             ; Chapters 20

[img]http://torrent-stats.info/6deb/65b7d30d.png[/img]
 
http://i1015.photobucket.com/albums/af279/tequila-bob/Dawn%20Of%20The%20Dead%202004/vlcsnap-2010-09-30-19h14m02s17.png  
http://i1015.photobucket.com/albums/af279/tequila-bob/Dawn%20Of%20The%20Dead%202004/vlcsnap-2010-09-30-19h15m57s142.png  
http://i1015.photobucket.com/albums/af279/tequila-bob/Dawn%20Of%20The%20Dead%202004/vlcsnap-2010-09-30-19h16m11s22.png  
http://i1015.photobucket.com/albums/af279/tequila-bob/Dawn%20Of%20The%20Dead%202004/vlcsnap-2010-09-30-19h17m33s79.png  
http://i1015.photobucket.com/albums/af279/tequila-bob/Dawn%20Of%20The%20Dead%202004/vlcsnap-2010-09-30-19h19m41s78.png  
http://i1015.photobucket.com/albums/af279/tequila-bob/Dawn%20Of%20The%20Dead%202004/vlcsnap-2010-09-30-19h22m10s28.png  
http://i1015.photobucket.com/albums/af279/tequila-bob/Dawn%20Of%20The%20Dead%202004/vlcsnap-2010-09-30-19h24m01s115.png 
http://i1015.photobucket.com/albums/af279/tequila-bob/Dawn%20Of%20The%20Dead%202004/vlcsnap-2010-09-30-19h25m51s191.png  
http://i1015.photobucket.com/albums/af279/tequila-bob/Dawn%20Of%20The%20Dead%202004/vlcsnap-2010-09-30-19h27m25s112.png 
 
 